<svg width="20" height="20" viewBox="0 0 20 20" fill="none" xmlns="http://www.w3.org/2000/svg">
<path d="M18.7278 9.60553L10.3944 1.27221C10.2903 1.16874 10.1495 1.11066 10.0028 1.11066C9.85598 1.11066 9.71518 1.16874 9.61109 1.27221L1.27775 9.60553C1.18674 9.71181 1.13918 9.84852 1.14458 9.98834C1.14998 10.1282 1.20794 10.2608 1.30688 10.3597C1.40583 10.4587 1.53846 10.5166 1.67828 10.522C1.8181 10.5274 1.95481 10.4799 2.06109 10.3889L9.99998 2.44998L17.9389 10.3944C18.0451 10.4854 18.1819 10.533 18.3217 10.5276C18.4615 10.5222 18.5941 10.4642 18.6931 10.3653C18.792 10.2663 18.85 10.1337 18.8554 9.9939C18.8608 9.85408 18.8132 9.71737 18.7222 9.61109L18.7278 9.60553Z" fill="url(#paint0_linear_6602_2514)"/>
<path d="M15.5555 17.7778H12.7778V12.2222H7.2222V17.7778H4.44442V10L3.33331 11.1111V17.7778C3.33331 18.0725 3.45038 18.3551 3.65875 18.5634C3.86712 18.7718 4.14974 18.8889 4.44442 18.8889H8.33331V13.3333H11.6666V18.8889H15.5555C15.8502 18.8889 16.1328 18.7718 16.3412 18.5634C16.5496 18.3551 16.6666 18.0725 16.6666 17.7778V10.9778L15.5555 9.86667V17.7778Z" fill="url(#paint1_linear_6602_2514)"/>
<defs>
<linearGradient id="paint0_linear_6602_2514" x1="9.99998" y1="1.11066" x2="9.99998" y2="10.528" gradientUnits="userSpaceOnUse">
<stop stop-color="#007BFF"/>
<stop offset="1" stop-color="#66B2FF"/>
</linearGradient>
<linearGradient id="paint1_linear_6602_2514" x1="9.99998" y1="9.86667" x2="9.99998" y2="18.8889" gradientUnits="userSpaceOnUse">
<stop stop-color="#007BFF"/>
<stop offset="1" stop-color="#66B2FF"/>
</linearGradient>
</defs>
</svg>
