<svg width="20" height="20" viewBox="0 0 20 20" fill="none" xmlns="http://www.w3.org/2000/svg">
<path d="M16.6667 14.1667H18.3334V15.8333H1.66669V14.1667H3.33335V8.33332C3.33335 6.56521 4.03573 4.86952 5.28598 3.61928C6.53622 2.36904 8.23191 1.66666 10 1.66666C11.7681 1.66666 13.4638 2.36904 14.7141 3.61928C15.9643 4.86952 16.6667 6.56521 16.6667 8.33332V14.1667ZM15 14.1667V8.33332C15 7.00724 14.4732 5.73547 13.5356 4.79779C12.5979 3.86011 11.3261 3.33332 10 3.33332C8.67394 3.33332 7.40217 3.86011 6.46449 4.79779C5.5268 5.73547 5.00002 7.00724 5.00002 8.33332V14.1667H15ZM7.50002 17.5H12.5V19.1667H7.50002V17.5Z" fill="#5E5E5E"/>
</svg>
